<?xml version="1.0"?>
<svg xmlns="http://www.w3.org/2000/svg" xmlns:xlink="http://www.w3.org/1999/xlink" version="1.1" id="Capa_1" x="0px" y="0px" viewBox="0 0 512 512" style="enable-background:new 0 0 512 512;" xml:space="preserve" width="512px" height="512px" class=""><g><g>
	<g>
		<g>
			<path d="M477.867,0H34.133C15.282,0,0,15.282,0,34.133V76.8c0,4.713,3.82,8.533,8.533,8.533h384c4.713,0,8.533-3.82,8.533-8.533     s-3.821-8.533-8.533-8.533H17.067V34.133c0-9.426,7.641-17.067,17.067-17.067h443.733c9.426,0,17.067,7.641,17.067,17.067v34.133     h-51.2c-4.713,0-8.533,3.82-8.533,8.533s3.82,8.533,8.533,8.533h59.733c4.713,0,8.533-3.82,8.533-8.533V34.133     C512,15.282,496.718,0,477.867,0z" data-original="#000000" class="active-path" data-old_color="#HTTP:/" fill="#1E2E8A"/>
			<path d="M503.467,102.4c-4.713,0-8.533,3.82-8.533,8.533v366.933c0,9.426-7.641,17.067-17.067,17.067H34.133     c-9.426,0-17.067-7.641-17.067-17.067V110.933c0-4.713-3.82-8.533-8.533-8.533S0,106.221,0,110.933v366.933     C0,496.718,15.282,512,34.133,512h443.733C496.718,512,512,496.718,512,477.867V110.933C512,106.221,508.18,102.4,503.467,102.4z     " data-original="#000000" class="active-path" data-old_color="#HTTP:/" fill="#1E2E8A"/>
			<path d="M136.533,153.6c-4.713,0-8.533,3.82-8.533,8.533s3.82,8.533,8.533,8.533H230.4c9.426,0,17.067-7.641,17.067-17.067     v-34.133c0-9.426-7.641-17.067-17.067-17.067H68.267c-9.426,0-17.067,7.641-17.067,17.067V153.6     c0,9.426,7.641,17.067,17.067,17.067h25.6c4.713,0,8.533-3.82,8.533-8.533s-3.821-8.533-8.533-8.533h-25.6v-34.133H230.4V153.6     H136.533z" data-original="#000000" class="active-path" data-old_color="#HTTP:/" fill="#1E2E8A"/>
			<path d="M349.867,153.6c-4.713,0-8.533,3.82-8.533,8.533s3.82,8.533,8.533,8.533h93.867c9.426,0,17.067-7.641,17.067-17.067     v-34.133c0-9.426-7.641-17.067-17.067-17.067H281.6c-9.426,0-17.067,7.641-17.067,17.067V153.6     c0,9.426,7.641,17.067,17.067,17.067h25.6c4.713,0,8.533-3.82,8.533-8.533s-3.82-8.533-8.533-8.533h-25.6v-34.133h162.133V153.6     H349.867z" data-original="#000000" class="active-path" data-old_color="#HTTP:/" fill="#1E2E8A"/>
			<path d="M51.2,238.933c0,9.426,7.641,17.067,17.067,17.067h25.6c4.713,0,8.533-3.82,8.533-8.533s-3.821-8.533-8.533-8.533h-25.6     V204.8h375.467v34.133h-307.2c-4.713,0-8.533,3.82-8.533,8.533s3.82,8.533,8.533,8.533h307.2c9.426,0,17.067-7.641,17.067-17.067     V204.8c0-9.426-7.641-17.067-17.067-17.067H68.267c-9.426,0-17.067,7.641-17.067,17.067V238.933z" data-original="#000000" class="active-path" data-old_color="#HTTP:/" fill="#1E2E8A"/>
			<path d="M51.2,392.533c0,9.426,7.641,17.067,17.067,17.067h25.6c4.713,0,8.533-3.82,8.533-8.533s-3.821-8.533-8.533-8.533h-25.6     v-102.4h375.467v102.4h-307.2c-4.713,0-8.533,3.821-8.533,8.533s3.82,8.533,8.533,8.533h307.2     c9.426,0,17.067-7.641,17.067-17.067v-102.4c0-9.426-7.641-17.067-17.067-17.067H68.267c-9.426,0-17.067,7.641-17.067,17.067     V392.533z" data-original="#000000" class="active-path" data-old_color="#HTTP:/" fill="#1E2E8A"/>
			<path d="M375.467,426.667c-14.138,0-25.6,11.462-25.6,25.6c0,14.138,11.461,25.6,25.6,25.6h51.2c14.138,0,25.6-11.462,25.6-25.6     c0-14.138-11.461-25.6-25.6-25.6H375.467z M435.2,452.267c0,4.713-3.82,8.533-8.533,8.533h-51.2     c-4.713,0-8.533-3.821-8.533-8.533c0-4.713,3.82-8.533,8.533-8.533h51.2C431.38,443.733,435.2,447.554,435.2,452.267z" data-original="#000000" class="active-path" data-old_color="#HTTP:/" fill="#1E2E8A"/>
			<path d="M42.667,34.133c-4.713,0-8.533,3.82-8.533,8.533s3.82,8.533,8.533,8.533H51.2c4.713,0,8.533-3.82,8.533-8.533     s-3.82-8.533-8.533-8.533H42.667z" data-original="#000000" class="active-path" data-old_color="#HTTP:/" fill="#1E2E8A"/>
			<path d="M85.333,34.133c-4.713,0-8.533,3.82-8.533,8.533s3.82,8.533,8.533,8.533h8.533c4.713,0,8.533-3.82,8.533-8.533     s-3.821-8.533-8.533-8.533H85.333z" data-original="#000000" class="active-path" data-old_color="#HTTP:/" fill="#1E2E8A"/>
			<path d="M128,34.133c-4.713,0-8.533,3.82-8.533,8.533S123.287,51.2,128,51.2h8.533c4.713,0,8.533-3.82,8.533-8.533     s-3.82-8.533-8.533-8.533H128z" data-original="#000000" class="active-path" data-old_color="#HTTP:/" fill="#1E2E8A"/>
		</g>
	</g>
</g></g> </svg>
